<svg clip-rule="evenodd" fill-rule="evenodd" height="106.451mm" image-rendering="optimizeQuality" shape-rendering="geometricPrecision" text-rendering="geometricPrecision" viewBox="0 0 10691.64 10691.64" width="106.451mm" xmlns="http://www.w3.org/2000/svg" xmlns:xlink="http://www.w3.org/1999/xlink"><clipPath id="a"><path d="m0 0h10691.64v10691.64h-10691.64z"/></clipPath><path d="m0 0h10691.64v10691.64h-10691.64z" fill="#be4bdb"/><path d="m0 0h10691.64v10691.64h-10691.64z" fill="#5f5d5d"/><g clip-path="url(#a)"><path d="m17611.59 16277.24c1 .98 2.03 2.01 3.03 3.01l1842.86 1842.88-1968.32-1930.63 1968.32 1930.63c171.91 173.76 171.91 454.72-1.83 628.47l-523.12 523.12c-170.87 172.7-449.51 173.75-623.48 3.1l-2286.17-2242.41c-594.4 376.65-1298.89 594.22-2055.19 594.22-1048.46 0-1998.75-419.41-2692.25-1099.62l-9508.75-9326.77c-6.31-6.18-12.5-12.52-18.72-18.8-5.17-5.14-10.3-10.33-15.45-15.52-38.71-39-76.68-78.69-113.74-119.3-3.91-4.3-7.76-8.61-11.67-12.93-37.82-41.89-74.86-84.49-110.86-127.98-2.71-3.27-5.38-6.59-8.09-9.88-36.82-44.82-72.74-90.4-107.55-136.88-1.61-2.13-3.17-4.3-4.75-6.41-35.66-47.83-70.28-96.42-103.75-145.91-.58-.84-1.12-1.71-1.71-2.55-414.2-613.46-656.22-1352.83-656.22-2148.96 0-2123.84 1720.88-3844.73 3844.73-3844.73 796.12 0 1535.53 241.94 2148.95 656.19 1.29.86 2.53 1.75 3.82 2.6 49.26 33.36 97.71 67.8 145.3 103.33 2.5 1.87 4.96 3.77 7.46 5.63 46.22 34.69 91.65 70.37 136.22 107.05 3.6 2.96 7.15 5.96 10.73 8.93 43.25 35.85 85.72 72.6 127.32 110.28 4.54 4.12 9.05 8.28 13.59 12.41 33.43 30.57 66.49 61.51 98.82 93.22l9508.75 9326.77c711.28 697.67 1152.47 1669.73 1152.47 2745.11 0 769.67-225.46 1485.66-614.46 2086.59l413.68 405.78.01-.05z" fill="#474443"/></g><path d="m0 0h10691.64v10691.64h-10691.64z" fill="none"/><g fill-rule="nonzero"><path d="m9948.72 8796.36-1842.86-1842.88c-83.18-83.18-195.93-129.38-314.24-129.38h-301.3c510.17-652.49 813.3-1473.18 813.3-2365.98 0-2123.84-1720.87-3844.73-3844.71-3844.73s-3844.73 1720.87-3844.73 3844.73c0 2123.83 1720.88 3844.71 3844.73 3844.71 892.79 0 1713.49-303.13 2365.98-813.3v301.3c0 118.29 46.2 231.06 129.38 314.24l1842.88 1842.88c173.75 173.75 454.71 173.75 626.6 0l523.12-523.12c173.75-173.75 173.75-454.71 1.85-628.45l-.02-.02z" fill="#fefefe"/><path d="m2859.34 2712.9c-2.74.28-5.47.6-8.19.96 2.69-.37 5.44-.68 8.19-.96z" fill="#009b4c"/><path d="m2694.85 5909.76c-20.08 12.53-20.08 45.15 0 74.02 20.08 28.86 53.95 41.4 70.26 28.86 20.08-16.3 20.08-48.93 0-77.8-17.58-28.86-50.19-41.42-70.26-25.09v.02z" fill="#009b4c"/><path d="m2837.88 6094.19c-20.08 16.3-12.53 53.95 16.32 77.8 28.85 28.86 65.24 32.63 81.54 12.53 16.3-16.3 8.79-53.95-16.3-77.8-27.61-28.86-65.24-32.63-81.57-12.53z" fill="#009b4c"/><path d="m2431.37 5647.5c-8.79 16.3 3.77 36.38 28.86 48.93 20.08 12.53 45.17 8.79 53.95-8.79 8.79-16.3-3.77-36.38-28.86-48.91-25.09-7.53-45.19-3.77-53.95 8.79z" fill="#009b4c"/><path d="m2566.89 5749.15c-16.32 12.53-12.55 41.4 8.79 65.24 20.08 20.08 48.93 28.86 65.24 12.53 16.3-12.53 12.53-41.42-8.79-65.24-20.08-20.08-48.91-28.86-65.24-12.53z" fill="#009b4c"/><path d="m3593.2 6229.68c-36.4 8.79-61.49 32.63-57.72 61.49 3.77 25.08 36.4 41.4 74.02 32.61 36.38-8.79 61.47-32.61 57.7-57.7-3.77-23.84-37.64-40.14-74.02-36.4z" fill="#009b4c"/><path d="m3038.64 6251.01c-8.79 25.09 16.3 53.95 53.95 61.49 32.63 12.53 70.26 0 77.8-25.09s-16.3-53.95-53.95-65.24c-32.63-8.79-69.01 3.77-77.8 28.86v-.01z" fill="#009b4c"/><path d="m3428.83 6307.46c0 25.09-28.86 45.17-65.24 45.17-41.4 3.77-70.26-16.3-70.26-45.17 0-25.09 28.86-45.17 65.24-45.17 37.64-3.77 70.26 16.3 70.26 45.17z" fill="#009b4c"/><path d="m6055.11 2711.01c33.5 30.62 66.03 62.23 97.71 94.7-8.96-27.57-18.98-55.61-30.23-84.08-20.55-6.48-43.2-9.88-67.47-10.62v-.01z"/><path d="m2795.4 2775.08c21.43-21.18 43.23-41.98 65.45-62.33-16.08 1.62-31.33 4.47-45.54 8.89-7.11 18-13.72 35.8-19.92 53.44z"/><path d="m3428.83 6269.74c0 25.09-28.86 45.17-65.24 45.17-41.4 3.75-70.26-16.3-70.26-45.17 0-25.09 28.86-45.19 65.24-45.19 37.64-3.75 70.26 16.32 70.26 45.19zm-390.2-56.48c-8.79 25.09 16.32 53.95 53.95 61.47 32.63 12.53 70.26 0 77.8-25.09s-16.3-53.95-53.95-65.24c-32.63-8.79-69.01 3.77-77.8 28.86v.01zm554.56-21.32c-36.38 8.79-61.47 32.61-57.7 61.47 3.77 25.09 36.4 41.4 74.02 32.63 36.4-8.79 61.49-32.63 57.72-57.72-3.77-23.84-37.64-40.14-74.02-36.38zm825.57-4807.88c-1740.22 0-3071.43 1321.15-3071.43 3061.38 0 1391.43 875.74 2582.1 2126.66 3001.16 160.61 28.86 217.06-70.26 217.06-151.8 0-77.8-3.77-506.88-3.77-770.35 0 0-878.26 188.2-1062.7-373.9 0 0-143.03-365.1-348.79-459.2 0 0-287.32-196.99 20.08-193.22 0 0 312.41 25.09 484.31 323.7 274.79 484.31 735.23 345.04 914.66 262.23 28.86-200.73 110.41-340 200.73-422.82-701.35-77.8-1408.98-179.41-1408.98-1386.42 0-345.04 95.36-518.19 296.11-739-32.63-81.57-139.27-417.82 32.63-851.92 262.23-81.57 865.73 338.75 865.73 338.75 250.94-70.26 520.69-106.63 787.93-106.63s536.99 36.38 787.93 106.63c0 0 603.5-421.57 865.73-338.75 171.9 435.38 65.24 770.35 32.63 851.92 200.73 222.08 323.72 395.22 323.72 739 0 1210.75-739.02 1307.36-1440.36 1386.42 115.42 99.12 213.29 287.32 213.29 582.15 0 422.82-3.75 946.02-3.75 1048.89 0 81.57 57.7 180.69 217.06 151.82 1254.66-416.55 2105.33-1607.24 2105.33-2998.67 0-1740.22-1411.5-3061.38-3151.72-3061.38l-.11.01zm-1851.89 4327.35c-16.3 12.53-12.53 41.4 8.79 65.24 20.08 20.08 48.93 28.86 65.24 12.53 16.3-12.53 12.53-41.4-8.79-65.24-20.08-20.08-48.91-28.86-65.24-12.53zm-135.5-101.62c-8.79 16.3 3.77 36.38 28.86 48.91 20.08 12.55 45.17 8.79 53.95-8.79 8.79-16.3-3.77-36.4-28.86-48.93-25.09-7.52-45.17-3.77-53.95 8.79zm406.51 446.66c-20.08 16.3-12.53 53.95 16.3 77.8 28.86 28.86 65.24 32.63 81.57 12.55 16.3-16.32 8.79-53.95-16.3-77.8-27.59-28.86-65.24-32.61-81.57-12.53zm-143.03-184.43c-20.08 12.53-20.08 45.17 0 74.02 20.08 28.86 53.95 41.42 70.26 28.86 20.08-16.3 20.08-48.93 0-77.8-17.58-28.86-50.19-41.4-70.26-25.09z" fill="#474443"/></g></svg>