<svg clip-rule="evenodd" fill-rule="evenodd" height="94.2364mm" image-rendering="optimizeQuality" shape-rendering="geometricPrecision" text-rendering="geometricPrecision" viewBox="0 0 4126.05 4126.76" width="94.2202mm" xmlns="http://www.w3.org/2000/svg"><g fill-rule="nonzero"><path d="m4069.93 3567.84-803.5-803.51c-36.27-36.27-85.43-56.42-137.01-56.42h-131.37c222.44-284.49 354.61-642.33 354.61-1031.58 0-926.01-750.31-1676.33-1676.33-1676.33s-1676.33 750.31-1676.33 1676.33c0 926.01 750.32 1676.33 1676.33 1676.33 389.26 0 747.1-132.18 1031.58-354.61v131.37c0 51.58 20.15 100.74 56.42 137.01l803.51 803.51c75.75 75.75 198.26 75.75 273.21 0l228.08-228.08c75.75-75.75 75.75-198.26.81-274.01v-.01z" fill="#474443"/><g fill="#009b4c"><path d="m978.89 915.39c-1.2.12-2.39.26-3.57.43 1.18-.16 2.36-.3 3.57-.43z"/><path d="m907.18 2309.25c-8.75 5.47-8.75 19.68 0 32.27 8.75 12.58 23.52 18.05 30.64 12.58 8.75-7.11 8.75-21.33 0-33.92-7.66-12.58-21.88-18.06-30.64-10.94z"/><path d="m969.54 2389.66c-8.75 7.11-5.47 23.52 7.12 33.92 12.58 12.58 28.44 14.22 35.55 5.47 7.11-7.11 3.83-23.52-7.11-33.92-12.04-12.58-28.45-14.22-35.56-5.47z"/><path d="m792.3 2194.91c-3.83 7.11 1.64 15.86 12.58 21.33 8.75 5.47 19.69 3.83 23.52-3.83 3.83-7.11-1.64-15.86-12.58-21.33-10.94-3.28-19.7-1.64-23.52 3.83z"/><path d="m851.38 2239.22c-7.12 5.47-5.47 18.05 3.83 28.45 8.75 8.75 21.33 12.58 28.45 5.47 7.11-5.47 5.47-18.06-3.83-28.45-8.75-8.75-21.33-12.58-28.44-5.47z"/><path d="m1298.87 2448.74c-15.86 3.83-26.81 14.22-25.17 26.81 1.64 10.93 15.86 18.05 32.28 14.21 15.86-3.83 26.8-14.21 25.16-25.16-1.64-10.39-16.41-17.51-32.27-15.86z"/><path d="m1057.07 2458.04c-3.83 10.94 7.11 23.52 23.52 26.81 14.22 5.47 30.64 0 33.92-10.94s-7.11-23.52-23.52-28.45c-14.22-3.83-30.09 1.64-33.92 12.58z"/><path d="m1227.2 2482.65c0 10.94-12.58 19.69-28.45 19.69-18.05 1.64-30.64-7.11-30.64-19.69 0-10.94 12.58-19.69 28.45-19.69 16.41-1.64 30.64 7.11 30.64 19.69z"/></g><path d="m2372.28 914.57c14.6 13.34 28.79 27.13 42.6 41.29-3.91-12.02-8.28-24.24-13.18-36.66-8.96-2.83-18.84-4.3-29.42-4.62z"/><path d="m951.01 942.5c9.34-9.24 18.85-18.3 28.54-27.18-7 .7-13.66 1.95-19.86 3.88-3.1 7.85-5.98 15.6-8.68 23.3z"/><path d="m1227.2 2466.2c0 10.94-12.58 19.69-28.45 19.69-18.05 1.64-30.64-7.11-30.64-19.69 0-10.94 12.58-19.7 28.45-19.7 16.41-1.64 30.64 7.12 30.64 19.7zm-170.13-24.62c-3.83 10.94 7.12 23.52 23.52 26.8 14.22 5.47 30.64 0 33.92-10.94s-7.11-23.52-23.52-28.45c-14.22-3.83-30.09 1.64-33.92 12.58zm241.79-9.3c-15.86 3.83-26.8 14.21-25.16 26.8 1.64 10.94 15.86 18.05 32.27 14.22 15.86-3.83 26.81-14.22 25.17-25.17-1.64-10.39-16.41-17.5-32.28-15.86zm359.96-2096.28c-758.75 0-1339.16 576.04-1339.16 1334.78 0 606.67 381.84 1125.82 927.25 1308.53 70.03 12.58 94.63-30.64 94.63-66.19 0-33.92-1.64-221.01-1.64-335.89 0 0-382.93 82.06-463.35-163.02 0 0-62.36-159.19-152.08-200.21 0 0-125.28-85.89 8.75-84.25 0 0 136.22 10.94 211.16 141.14 119.81 211.17 320.57 150.45 398.79 114.34 12.58-87.53 48.14-148.25 87.53-184.35-305.8-33.92-614.33-78.22-614.33-604.49 0-150.45 41.58-225.93 129.1-322.21-14.22-35.56-60.72-182.17 14.22-371.44 114.33-35.56 377.46 147.7 377.46 147.7 109.41-30.64 227.02-46.5 343.54-46.5s234.14 15.86 343.54 46.5c0 0 263.13-183.81 377.46-147.7 74.94 189.82 28.45 335.89 14.22 371.44 87.53 96.83 141.14 172.32 141.14 322.21 0 527.9-322.21 570.02-628.01 604.49 50.33 43.21 93 125.28 93 253.83 0 184.35-1.64 412.47-1.64 457.33 0 35.56 25.16 78.78 94.63 66.2 547.04-181.62 917.94-700.77 917.94-1307.44 0-758.75-615.42-1334.78-1374.18-1334.78l.01-.01zm-807.44 1886.75c-7.11 5.47-5.47 18.05 3.83 28.45 8.75 8.75 21.33 12.58 28.45 5.47 7.11-5.47 5.47-18.05-3.83-28.45-8.75-8.75-21.33-12.58-28.45-5.47zm-59.08-44.31c-3.83 7.11 1.64 15.86 12.58 21.33 8.75 5.47 19.69 3.83 23.52-3.83 3.83-7.11-1.64-15.86-12.58-21.33-10.94-3.28-19.69-1.64-23.52 3.83zm177.24 194.75c-8.75 7.11-5.47 23.52 7.11 33.92 12.58 12.58 28.45 14.22 35.56 5.47 7.11-7.12 3.83-23.52-7.11-33.92-12.03-12.58-28.45-14.21-35.56-5.47zm-62.36-80.41c-8.75 5.47-8.75 19.69 0 32.27s23.52 18.06 30.64 12.58c8.75-7.11 8.75-21.33 0-33.92-7.66-12.58-21.88-18.05-30.64-10.94z" fill="#fefefe"/></g></svg>